<svg width="25" height="25" viewBox="0 0 25 25" fill="none" xmlns="http://www.w3.org/2000/svg">
<path fill-rule="evenodd" clip-rule="evenodd" d="M16.6665 5.20825L16.6665 7.29159L14.5832 7.29159L14.5832 5.20825L16.6665 5.20825ZM14.5832 7.29159L14.5832 9.37492L12.4998 9.37492L12.4998 7.29159L14.5832 7.29159ZM10.4165 11.4583L10.4165 9.37492L12.4998 9.37492L12.4998 11.4583L10.4165 11.4583ZM10.4165 13.5416L8.33317 13.5416L8.33317 11.4583L10.4165 11.4583L10.4165 13.5416ZM12.4998 15.6249L12.4998 13.5416L10.4165 13.5416L10.4165 15.6249L12.4998 15.6249ZM12.4998 15.6249L14.5832 15.6249L14.5832 17.7083L12.4998 17.7083L12.4998 15.6249ZM16.6665 19.7916L16.6665 17.7083L14.5832 17.7083L14.5832 19.7916L16.6665 19.7916Z" fill="#909090"/>
</svg>
